<svg width="29" height="35" viewBox="0 0 29 35" fill="none" xmlns="http://www.w3.org/2000/svg">
<path d="M24.2463 18.4956C24.2309 15.6278 25.5098 13.4634 28.0986 11.8693C26.6501 9.7674 24.462 8.61094 21.5728 8.38434C18.8377 8.16555 15.8483 10.0018 14.7543 10.0018C13.5986 10.0018 10.9482 8.46248 8.86796 8.46248C4.56881 8.5328 0 11.9397 0 18.8706C0 20.9179 0.369819 23.0328 1.10946 25.2155C2.09564 28.0832 5.65515 35.1158 9.36876 34.9986C11.3103 34.9517 12.6817 33.5999 15.2088 33.5999C17.6589 33.5999 18.9301 34.9986 21.0951 34.9986C24.8395 34.9439 28.06 28.5521 29 25.6765C23.9766 23.2777 24.2463 18.644 24.2463 18.4956V18.4956ZM19.8855 5.66509C21.9888 3.13338 21.7962 0.828276 21.7346 0C19.8778 0.109395 17.7282 1.28148 16.5032 2.72706C15.1549 4.27421 14.3613 6.18863 14.5308 8.34527C16.5417 8.50155 18.3754 7.45448 19.8855 5.66509V5.66509Z" fill="white"/>
</svg>
