<svg width="29" height="37" viewBox="0 0 29 37" fill="none" xmlns="http://www.w3.org/2000/svg">
<path fill-rule="evenodd" clip-rule="evenodd" d="M7.90384 16.9148C8.12138 17.0598 8.55645 17.2773 8.8465 17.4949C9.4266 17.7849 10.6593 18.7276 11.2394 18.8001C11.892 18.8001 12.5446 18.075 12.9797 17.6399C13.2698 17.3499 14.2849 16.4072 14.6475 16.2622C15.3726 15.9721 15.9527 17.2048 16.8229 16.4072L16.9679 16.3347C17.258 15.9721 17.8381 15.247 18.3456 15.247C18.6357 15.247 18.8532 15.3195 19.1433 15.4645C19.5058 15.6821 20.3035 16.1171 20.7385 16.1897C21.1736 16.1897 21.3186 15.8996 21.4637 15.6821L26.177 9.59103C26.7571 8.8659 27.2647 8.2858 27.7723 7.48816C28.3524 6.76304 29.7301 5.67535 27.9173 5.24028C27.4822 5.09525 27.0471 5.09525 26.6121 4.8052C26.467 4.73269 26.5395 4.66018 26.5395 4.51515C26.6846 4.2251 27.3372 3.42747 27.5547 3.20993C27.8448 2.77485 28.1348 2.41229 28.4249 2.04973C29.5126 0.671992 29.15 0.744505 26.5395 0.381942C23.4215 -0.0531326 23.9291 -0.343182 23.0589 0.817017L21.5362 2.91988C21.3912 3.28244 21.6087 3.28244 21.4637 3.57249L21.3186 3.645C21.0286 3.71752 20.4485 3.49998 20.0859 3.42747C19.5784 3.28244 19.2883 3.13742 18.9257 3.49998L13.2698 10.7512C12.3271 11.9114 12.3996 12.3465 11.602 11.9839C11.1669 11.7664 9.57163 10.9688 9.20907 10.9688C8.33892 10.8237 7.75882 12.0564 6.96118 11.9114C6.23606 11.8389 5.51093 10.9688 5.07586 12.419C4.93083 12.7816 4.93083 13.1441 4.85832 13.5067C4.56827 14.9569 4.85832 15.102 6.09103 15.8271C6.67113 16.1171 7.32374 16.4797 7.90384 16.9148Z" fill="#FEFEFE"/>
<path fill-rule="evenodd" clip-rule="evenodd" d="M0 36.2755L7.32376 29.0242C8.55647 27.7915 8.33893 28.2266 8.48396 26.4138C8.55647 25.3986 8.62898 25.4711 8.04889 25.036C6.3811 23.8033 6.59864 23.5858 5.58346 24.0209C4.13321 24.746 4.56829 24.4559 3.84316 26.1237L1.37774 32.6499L2.24789 32.3598L0 36.2755Z" fill="#FEFEFE"/>
<path fill-rule="evenodd" clip-rule="evenodd" d="M7.39643 20.9031C6.81633 23.1509 6.81633 22.5709 8.48412 23.9486C9.42678 24.7462 9.35427 24.3111 10.0069 23.731C10.3694 23.5135 11.1671 22.6434 11.4571 22.5709C12.0372 22.3533 13.2699 22.4258 13.85 22.2083C13.9951 21.9908 13.6325 21.8457 13.0524 21.4832L7.32392 17.785C7.25141 17.7125 6.96136 17.5675 6.96136 17.64C6.67131 18.2926 7.97653 18.9452 7.39643 20.9031Z" fill="#FEFEFE"/>
</svg>
